HIERARCHY
ROOT Hips
{
 OFFSET 0.000000 0.000000 0.000000
 CHANNELS 6 Xposition Yposition Zposition Yrotation Xrotation Zrotation
 JOINT Chest
 {
  OFFSET 0.000000 9.588913 -0.003946
  CHANNELS 3 Yrotation Xrotation Zrotation
  JOINT Chest2
  {
   OFFSET 0.000000 9.541882 0.008053
   CHANNELS 3 Yrotation Xrotation Zrotation
   JOINT Chest3
   {
    OFFSET 0.000000 9.501360 0.000000
    CHANNELS 3 Yrotation Xrotation Zrotation
    JOINT Chest4
    {
     OFFSET 0.000000 9.491660 0.000000
     CHANNELS 3 Yrotation Xrotation Zrotation
     JOINT Neck
     {
      OFFSET 0.000000 14.331917 0.000000
      CHANNELS 3 Yrotation Xrotation Zrotation
      JOINT Head
      {
       OFFSET 0.000000 8.884799 0.017034
       CHANNELS 3 Yrotation Xrotation Zrotation
       End Site
       {
        OFFSET 0.000000 16.896195 0.008993
       }
      }
     }
     JOINT RightCollar
     {
      OFFSET -2.923010 9.499495 0.000000
      CHANNELS 3 Yrotation Xrotation Zrotation
      JOINT RightShoulder
      {
       OFFSET -13.795216 0.000000 0.000000
       CHANNELS 3 Yrotation Xrotation Zrotation
       JOINT RightElbow
       {
        OFFSET -30.272209 0.000000 0.000000
        CHANNELS 3 Yrotation Xrotation Zrotation
        JOINT RightWrist
        {
         OFFSET -24.478199 0.000000 0.000000
         CHANNELS 3 Yrotation Xrotation Zrotation
         End Site
         {
          OFFSET -18.090752 0.000000 0.000000
         }
        }
       }
      }
     }
     JOINT LeftCollar
     {
      OFFSET 2.923010 9.499495 0.000000
      CHANNELS 3 Yrotation Xrotation Zrotation
      JOINT LeftShoulder
      {
       OFFSET 13.795216 0.000000 0.000000
       CHANNELS 3 Yrotation Xrotation Zrotation
       JOINT LeftElbow
       {
        OFFSET 30.272209 0.000000 0.000000
        CHANNELS 3 Yrotation Xrotation Zrotation
        JOINT LeftWrist
        {
         OFFSET 24.478199 0.000000 0.000000
         CHANNELS 3 Yrotation Xrotation Zrotation
         End Site
         {
          OFFSET 18.090752 0.000000 0.000000
         }
        }
       }
      }
     }
    }
   }
  }
 }
 JOINT RightHip
 {
  OFFSET -7.826875 0.019532 0.001973
  CHANNELS 3 Yrotation Xrotation Zrotation
  JOINT RightKnee
  {
   OFFSET 0.000000 -40.546152 -0.001885
   CHANNELS 3 Yrotation Xrotation Zrotation
   JOINT RightAnkle
   {
    OFFSET 0.000000 -39.417092 -0.003189
    CHANNELS 3 Yrotation Xrotation Zrotation
    JOINT RightToe
    {
     OFFSET 0.000000 -7.579396 17.243563
     CHANNELS 3 Yrotation Xrotation Zrotation
     End Site
     {
      OFFSET 0.000000 -1.500329 6.694466
     }
    }
   }
  }
 }
 JOINT LeftHip
 {
  OFFSET 7.826875 0.019532 0.001973
  CHANNELS 3 Yrotation Xrotation Zrotation
  JOINT LeftKnee
  {
   OFFSET 0.000000 -40.546152 -0.001885
   CHANNELS 3 Yrotation Xrotation Zrotation
   JOINT LeftAnkle
   {
    OFFSET 0.000000 -39.417092 -0.003189
    CHANNELS 3 Yrotation Xrotation Zrotation
    JOINT LeftToe
    {
     OFFSET 0.000000 -7.579396 17.243563
     CHANNELS 3 Yrotation Xrotation Zrotation
     End Site
     {
      OFFSET 0.000000 -1.500329 6.694466
     }
    }
   }
  }
 }
}
MOTION
Frames: 10
Frame Time: 0.008333
0.000000 87.345680 0.000000 0.000000 -5.767889 0.000000 0.000000 11.653876 0.000000 0.000000 -5.885988 0.000000 0.000000 -0.000000 0.000000 0.000000 -0.000000 0.000000 0.000000 12.528808 0.000000 0.000000 0.711711 0.000000 0.000000 -0.000000 0.000000 0.000000 -0.000000 0.000000 2.309063 -0.000000 0.000000 -2.309063 -0.000000 -0.000000 0.000000 -0.000000 0.000000 0.000000 0.000000 0.000000 -2.309063 0.000000 0.000000 2.309063 -0.000000 0.000000 0.000000 8.520374 0.000000 0.000000 1.905768 0.000000 -0.000000 -4.658254 0.000000 0.000000 -0.000000 0.000000 0.000000 8.520374 0.000000 0.000000 1.905768 0.000000 -0.000000 -4.658254 0.000000 0.000000 -0.000000 0.000000
-8.206156 89.098397 7.422369 -56.756604 -6.409789 -0.847890 0.886560 2.552255 -0.595578 0.514755 1.454086 -0.273693 0.642410 1.817986 -0.340101 0.514755 1.454086 -0.273693 5.766127 17.684851 -2.511900 11.445945 -2.495674 -6.519986 -3.390288 2.448206 0.386192 4.524221 -2.868101 88.944075 6.144456 6.484936 3.312404 -1.396452 -2.078236 -0.724653 -1.235610 1.520386 -0.042939 1.104945 0.475982 -88.127411 -8.255197 2.340374 -3.404822 1.451044 -3.429694 -1.924946 -2.834334 9.401740 -0.941246 2.195348 2.641869 -0.280990 -1.263723 -5.461202 1.451660 -0.021464 -0.153340 -0.002112 1.354082 9.394738 -0.012192 0.917143 1.794286 -0.584151 -5.272657 -4.670874 1.874849 0.033868 0.153011 0.106674
-8.207746 89.094044 7.443655 -56.732166 -6.422366 -0.846638 0.890633 2.564522 -0.595876 0.517520 1.460240 -0.274148 0.645860 1.825681 -0.340650 0.517520 1.460240 -0.274148 5.818607 17.671660 -2.540074 11.552760 -2.511094 -6.589971 -3.379320 2.437631 0.382160 4.533240 -2.848988 88.931727 6.348497 6.512704 3.417074 -1.398579 -2.072883 -0.712411 -1.249103 1.536885 -0.032659 1.189728 0.553748 -88.029516 -8.815877 2.357288 -3.699034 1.460929 -3.439114 -1.880750 -2.911726 9.347557 -0.957904 2.239059 2.800737 -0.300280 -1.256888 -5.549678 1.479409 -0.026751 -0.150272 -0.004665 1.446201 9.393559 0.012637 0.908328 1.838201 -0.619448 -5.354544 -4.705652 1.885838 0.035634 0.157743 0.103541
-8.210872 89.088993 7.467769 -56.707046 -6.442482 -0.845009 0.896230 2.578579 -0.595221 0.521155 1.467730 -0.274305 0.650399 1.835046 -0.340821 0.521155 1.467730 -0.274305 5.870117 17.659987 -2.570090 11.658265 -2.523501 -6.662873 -3.372556 2.424795 0.376861 4.556964 -2.837298 88.916519 6.540912 6.550927 3.518877 -1.403933 -2.069016 -0.698650 -1.263136 1.552238 -0.022284 1.294720 0.634347 -87.921932 -9.402161 2.419170 -4.011654 1.467895 -3.450018 -1.834199 -2.992921 9.306038 -0.978696 2.278180 2.953485 -0.317456 -1.242932 -5.638250 1.507147 -0.030737 -0.145624 -0.006940 1.534102 9.404958 0.033725 0.894801 1.875511 -0.649236 -5.429332 -4.740525 1.896103 0.037689 0.163223 0.099509
-8.215927 89.083502 7.493059 -56.679127 -6.470481 -0.845034 0.901284 2.594020 -0.595090 0.524319 1.476259 -0.274152 0.654348 1.845710 -0.340606 0.524319 1.476259 -0.274152 5.922402 17.649928 -2.600562 11.765204 -2.532688 -6.736692 -3.363964 2.411136 0.371596 4.593115 -2.832483 88.901906 6.720050 6.591456 3.617099 -1.411300 -2.063143 -0.683546 -1.276399 1.567686 -0.009825 1.422896 0.717681 -87.805474 -10.013745 2.521435 -4.341586 1.475478 -3.466252 -1.785869 -3.073720 9.277442 -0.997540 2.316628 3.100267 -0.336333 -1.231605 -5.725283 1.535755 -0.034030 -0.140858 -0.008905 1.611217 9.427587 0.053813 0.882542 1.908455 -0.674577 -5.499362 -4.775822 1.905047 0.039265 0.169572 0.094859
-8.222796 89.077859 7.518173 -56.646081 -6.505196 -0.845864 0.905365 2.611047 -0.595558 0.526814 1.485990 -0.274203 0.657460 1.857876 -0.340646 0.526813 1.485990 -0.274203 5.975157 17.641233 -2.630447 11.872697 -2.539283 -6.809441 -3.351987 2.396953 0.369562 4.636846 -2.835230 88.887821 6.886060 6.632927 3.709555 -1.418690 -2.056266 -0.667356 -1.291561 1.581322 0.002256 1.559870 0.805125 -87.678074 -10.650110 2.645773 -4.683040 1.485050 -3.484074 -1.737605 -3.148291 9.261058 -1.013049 2.352802 3.239704 -0.356370 -1.230794 -5.809420 1.563718 -0.036402 -0.136203 -0.010295 1.673683 9.460440 0.072418 0.876218 1.935161 -0.696303 -5.567088 -4.809163 1.911360 0.040635 0.176390 0.090592
-8.231203 89.072350 7.541955 -56.608126 -6.544704 -0.846224 0.908410 2.629365 -0.595742 0.528588 1.496765 -0.274829 0.659669 1.871346 -0.341406 0.528588 1.496765 -0.274829 6.027962 17.634045 -2.659902 11.980005 -2.543044 -6.881251 -3.335580 2.381604 0.371716 4.688632 -2.844460 88.870408 7.043157 6.674969 3.799955 -1.429357 -2.055322 -0.653213 -1.307377 1.591668 0.012791 1.688413 0.899642 -87.538300 -11.314597 2.775850 -5.035955 1.498139 -3.496354 -1.689313 -3.212200 9.255445 -1.025481 2.381939 3.369595 -0.376242 -1.240300 -5.889046 1.588549 -0.037030 -0.131505 -0.010323 1.724908 9.500814 0.089823 0.873691 1.956066 -0.716047 -5.632694 -4.839662 1.914685 0.041738 0.183067 0.087291
-8.241072 89.067265 7.563795 -56.565734 -6.588822 -0.844602 0.910595 2.649336 -0.596142 0.529675 1.508480 -0.276250 0.661013 1.885992 -0.343162 0.529675 1.508480 -0.276250 6.080485 17.628272 -2.689001 12.086547 -2.544176 -6.952157 -3.316516 2.362130 0.376760 4.751308 -2.855922 88.847903 7.195474 6.711872 3.893659 -1.443202 -2.060854 -0.641068 -1.323606 1.600062 0.023349 1.804760 1.002740 -87.386778 -12.016135 2.908585 -5.404720 1.515925 -3.505074 -1.638280 -3.266002 9.260425 -1.035579 2.402641 3.489238 -0.398038 -1.255604 -5.963867 1.611158 -0.036079 -0.126610 -0.009164 1.768290 9.545728 0.105728 0.873914 1.976228 -0.734267 -5.699153 -4.868339 1.915090 0.042150 0.188419 0.084789
-8.251917 89.062780 7.583251 -56.516376 -6.634751 -0.839376 0.912044 2.669687 -0.597878 0.530292 1.520294 -0.278590 0.661767 1.900764 -0.346068 0.530291 1.520294 -0.278590 6.131394 17.624412 -2.716997 12.189581 -2.542004 -7.020301 -3.298551 2.338856 0.385654 4.822318 -2.867635 88.820133 7.347139 6.738691 3.990921 -1.459598 -2.065149 -0.629150 -1.341917 1.608697 0.033497 1.911642 1.114095 -87.221624 -12.760735 3.045342 -5.794480 1.534045 -3.514936 -1.583778 -3.320148 9.272281 -1.046172 2.418291 3.599819 -0.422866 -1.271292 -6.035005 1.633156 -0.034542 -0.121305 -0.007828 1.802236 9.589843 0.118016 0.878788 1.999486 -0.751893 -5.765782 -4.895166 1.912641 0.042129 0.191451 0.083765
-8.263025 89.058937 7.599669 -56.458871 -6.677009 -0.830487 0.912250 2.688563 -0.600779 0.530451 1.531085 -0.281436 0.661946 1.914257 -0.349610 0.530450 1.531085 -0.281436 6.180259 17.622569 -2.743944 12.288316 -2.536389 -7.085628 -3.280591 2.314560 0.397432 4.895939 -2.881606 88.787293 7.503885 6.755645 4.091161 -1.484949 -2.065491 -0.615629 -1.360658 1.615536 0.043233 2.017611 1.233451 -87.042910 -13.546808 3.192077 -6.211116 1.544500 -3.527173 -1.527921 -3.382092 9.283594 -1.059414 2.433117 3.703822 -0.447607 -1.286267 -6.103309 1.654054 -0.033121 -0.115776 -0.007394 1.826145 9.626495 0.126511 0.886559 2.026650 -0.769584 -5.830505 -4.919647 1.907130 0.041947 0.192292 0.084406
